# File created by Blade
# Date/Time:  Thu Sep 25 17:14:50 2014
# Frame Rate: 120.000 fps
#------------------------------------------------------
:FULLY-SPECIFIED
:DEGREES
364
root 53.878063 33.157464 -3.025598 153.533226 -84.967891 -144.011228
Spine -7.083661 11.177943 6.208315
Head 8.409631 -11.149471 0.437322
LeftShoulder -12.748650 2.659780 43.042125
LeftArm 73.582711 -63.246396 -48.093706
LeftForeArm -26.290385 0.000000 25.998827
LeftHand -14.515057 -0.000000 -7.250868
LeftHandThumb1 -26.253704 0.000000 33.147579
RightShoulder -21.455646 31.134114 -61.002728
RightArm 53.249884 41.447225 59.157351
RightForeArm 19.052004 -0.000000 44.640639
RightHand -4.733092 -0.000000 -13.242715
RightHandThumb1 -24.326973 -0.000000 -32.862282
LeftUpLeg -39.328590 7.629499 -1.213388
LeftLeg 9.836701 -0.000000 -0.000000
LeftFoot 16.514843 21.752571 -33.280293
LeftToeBase 6.543063 -0.000000 -0.000000
RightUpLeg -6.387207 -12.943875 8.396012
RightLeg 5.029348 -0.000000 -0.000000
RightFoot -13.310274 -1.469840 -10.476188
RightToeBase 2.969077 -0.000000 -0.000000
365
root 53.877066 33.161490 -3.047864 154.341848 -84.883008 -144.894611
Spine -7.175491 11.328293 6.049506
Head 8.720372 -11.220292 0.553515
LeftShoulder -12.904571 4.621757 42.286558
LeftArm 78.022170 -64.365058 -50.637964
LeftForeArm -25.524638 -0.000000 25.571348
LeftHand -14.761300 -0.000000 -6.672729
LeftHandThumb1 -26.253704 0.000000 33.147579
RightShoulder -21.396246 30.979491 -60.793635
RightArm 53.875449 41.162188 59.224087
RightForeArm 18.789629 -0.000000 44.588844
RightHand -4.746261 -0.000000 -13.152890
RightHandThumb1 -24.326973 -0.000000 -32.862282
LeftUpLeg -39.307153 7.630771 -1.236961
LeftLeg 8.264930 -0.000000 -0.000000
LeftFoot 20.011483 22.892019 -31.966020
LeftToeBase 6.577839 -0.000000 -0.000000
RightUpLeg -6.295539 -12.788678 8.369925
RightLeg 5.013995 -0.000000 -0.000000
RightFoot -13.299785 -1.438289 -10.464236
RightToeBase 2.999460 -0.000000 -0.000000
366
root 53.872641 33.165009 -3.070616 154.892873 -84.845837 -145.500683
Spine -7.306943 11.412725 5.876018
Head 9.007899 -11.254865 0.713397
LeftShoulder -13.019381 6.119642 41.707716
LeftArm 80.983170 -65.161195 -51.884453
LeftForeArm -25.112918 -0.000000 25.231187
LeftHand -14.751533 -0.000000 -6.195623
LeftHandThumb1 -26.253704 0.000000 33.147579
RightShoulder -21.369052 30.848976 -60.593576
RightArm 54.581970 40.879053 59.420483
RightForeArm 18.354769 -0.000000 44.472400
RightHand -4.832402 -0.000000 -12.897908
RightHandThumb1 -24.326973 -0.000000 -32.862282
LeftUpLeg -39.314705 7.701065 -1.339474
LeftLeg 6.831002 -0.000000 -0.000000
LeftFoot 23.485280 24.037548 -31.183849
LeftToeBase 8.892882 -0.000000 -0.000000
RightUpLeg -6.185817 -12.728294 8.351203
RightLeg 4.928873 -0.000000 -0.000000
RightFoot -13.253294 -1.420436 -10.455489
RightToeBase 2.977593 -0.000000 -0.000000
367
root 53.870207 33.168569 -3.095806 155.024814 -84.824417 -145.667742
Spine -7.450920 11.449128 5.729617
Head 9.258560 -11.280575 0.902694
LeftShoulder -13.157852 7.588010 41.159564
LeftArm 84.484416 -65.924778 -53.765318
LeftForeArm -24.595191 -0.000000 24.805134
LeftHand -14.740639 -0.000000 -6.079183
LeftHandThumb1 -26.253704 0.000000 33.147579
RightShoulder -21.305963 30.707566 -60.326042
RightArm 55.178159 40.582948 59.333064
RightForeArm 18.128587 -0.000000 44.314484
RightHand -4.843152 0.000000 -12.696857
RightHandThumb1 -24.326973 -0.000000 -32.862282
LeftUpLeg -39.396425 7.847490 -1.477123
LeftLeg 5.737553 -0.000000 -0.000000
LeftFoot 26.530865 25.584891 -31.264275
LeftToeBase 8.052580 -0.000000 -0.000000
RightUpLeg -6.068585 -12.682009 8.358903
RightLeg 4.789388 -0.000000 -0.000000
RightFoot -13.177397 -1.324020 -10.331929
RightToeBase 2.882597 -0.000000 -0.000000
368
root 53.859070 33.171749 -3.119673 155.413167 -84.786541 -146.137729
Spine -7.548997 11.489156 5.579697
Head 9.520821 -11.295494 1.097601
LeftShoulder -13.244495 8.637870 40.762179
LeftArm 86.683584 -66.480308 -54.558588
LeftForeArm -24.221841 -0.000000 24.494175
LeftHand -14.977927 -0.000000 -5.804444
LeftHandThumb1 -26.253704 0.000000 33.147579
RightShoulder -21.264890 30.587186 -60.115797
RightArm 55.807783 40.303836 59.403036
RightForeArm 17.872009 -0.000000 44.124552
RightHand -4.841701 -0.000000 -12.373388
RightHandThumb1 -24.326973 -0.000000 -32.862282
LeftUpLeg -39.481925 8.473554 -2.052880
LeftLeg 4.369173 -0.000000 -0.000000
LeftFoot 29.688292 22.119562 -24.747462
LeftToeBase 20.292582 -0.000000 -0.000000
RightUpLeg -5.856968 -12.640537 8.324294
RightLeg 4.600471 -0.000000 -0.000000
RightFoot -13.061199 -1.213467 -10.318292
RightToeBase 2.729682 -0.000000 -0.000000
369
root 53.858196 33.177819 -3.143075 155.923017 -84.783206 -146.629939
Spine -7.732397 11.466611 5.388309
Head 9.740791 -11.260734 1.328155
LeftShoulder -13.361859 9.534541 40.441647
LeftArm 88.752765 -66.927778 -55.384524
LeftForeArm -23.822963 0.000000 24.230389
LeftHand -15.117694 -0.000000 -5.493194
LeftHandThumb1 -26.253704 0.000000 33.147579
RightShoulder -21.288253 30.552685 -59.977844
RightArm 56.265092 39.943703 59.335167
RightForeArm 17.685304 -0.000000 43.904656
RightHand -4.828756 0.000000 -12.160275
RightHandThumb1 -24.326973 -0.000000 -32.862282
LeftUpLeg -39.694993 8.719006 -2.334390
LeftLeg 3.807021 -0.000000 -0.000000
LeftFoot 31.788758 24.375611 -25.499491
LeftToeBase 17.898429 -0.000000 -0.000000
RightUpLeg -5.753059 -12.610507 8.289258
RightLeg 4.381153 -0.000000 -0.000000
RightFoot -12.891032 -1.043725 -10.149326
RightToeBase 2.627061 -0.000000 -0.000000
370
root 53.855949 33.183358 -3.166654 156.231283 -84.812747 -146.935400
Spine -7.882799 11.398922 5.208578
Head 9.911295 -11.216943 1.557242
LeftShoulder -13.478556 10.422962 40.109490
LeftArm 91.056599 -67.399555 -56.503082
LeftForeArm -23.464557 -0.000000 23.971937
LeftHand -15.255859 0.000000 -5.412662
LeftHandThumb1 -26.253704 0.000000 33.147579
RightShoulder -21.322932 30.554131 -59.860790
RightArm 56.678763 39.601420 59.230675
RightForeArm 17.455616 -0.000000 43.650378
RightHand -4.861709 -0.000000 -11.917792
RightHandThumb1 -24.326973 -0.000000 -32.862282
LeftUpLeg -39.940423 9.043736 -2.744881
LeftLeg 3.314376 -0.000000 -0.000000
LeftFoot 33.814845 25.175904 -24.432766
LeftToeBase 19.745291 -0.000000 -0.000000
RightUpLeg -5.614236 -12.662591 8.250665
RightLeg 4.133102 -0.000000 -0.000000
RightFoot -12.745801 -0.847470 -9.970211
RightToeBase 2.524353 -0.000000 -0.000000
